<svg width="99" height="124" viewBox="0 0 99 124" fill="none" xmlns="http://www.w3.org/2000/svg">
    <path fill-rule="evenodd" clip-rule="evenodd" d="M50.8105 2.64062H85.4147V10.7242H94.0257C93.8619 11.1532 93.6535 11.5698 93.4058 11.9747L65.5005 51.4915H91.7177V58.352H98.5279C98.3552 59.3237 97.9387 60.2997 97.2249 61.2548L27.8129 124V117.287H23.0754L33.6039 71.6055H18.3558V64.688H11.8848C11.9418 64.374 12.016 64.0464 12.1045 63.6985L42.199 10.7242H50.8105V2.64062Z" fill="white"/>
    <path fill-rule="evenodd" clip-rule="evenodd" d="M38.9258 0H73.5304V8.08356H82.1409C81.9771 8.51262 81.7687 8.9292 81.521 9.33407L53.6157 48.8508H79.8336V55.7114H86.6432C86.4704 56.6831 86.0539 57.6591 85.3401 58.6142L15.9285 121.359V114.646H11.1907L21.7191 68.9649H6.47168V62.0474H0C0.0570071 61.7334 0.131239 61.4058 0.21972 61.0579L30.3142 8.08356H38.9258V0Z" fill="#FFD500"/>
</svg>
