<svg width="181" height="41" viewBox="0 0 181 41" fill="none" xmlns="http://www.w3.org/2000/svg">
<path fill-rule="evenodd" clip-rule="evenodd" d="M13.3942 1.17676H24.6299V3.80165H27.4248C27.3717 3.94077 27.3041 4.07584 27.2238 4.20712L18.1642 17.0365H26.6735V19.2647H28.8866C28.8304 19.5799 28.6952 19.8964 28.4637 20.2062L5.93008 40.5757V38.398H4.39064L7.80887 23.5667H2.86225V21.3201H0.757812C0.776301 21.2183 0.80035 21.1122 0.829001 20.9996L10.599 3.80174H13.3942V1.17676Z" fill="#FFD500"/>
<path fill-rule="evenodd" clip-rule="evenodd" d="M49.3959 19.9916V22.9403H68.2673V19.9916H71.2159V14.0943H78.8824V22.9403H85.9592V1.12012H78.8824V9.96613H71.2159V1.12012H64.1392V9.96613H53.524V1.12012H46.4473V19.9916H49.3959ZM67.6775 22.3491H49.9866V19.4005H47.038V1.70985H47.037V19.4019H49.9856V22.3506H67.6775V22.3491ZM64.7289 10.5545H64.7299V1.70985H64.7289V10.5545ZM70.6262 19.4019H67.6785V19.4005H70.6262V19.4019ZM70.6272 13.5045H79.4721V22.3506H85.3694V22.3491H79.4731V13.5031H70.6272V13.5045ZM79.4731 1.70985H79.4721V10.5545H79.4731V1.70985ZM85.9592 40.6323V36.5042H56.4727V24.7095H49.3959V37.6836H52.3446V40.6323H85.9592ZM64.7289 19.4005H64.7299V13.5031H52.9353V13.5045H64.7289V19.4005ZM64.1392 18.8121H53.524V14.0943H64.1392V18.8121ZM49.9866 25.2992H49.9856V37.0939H52.9343V40.0426H85.3694V40.0412H52.9353V37.0925H49.9866V25.2992ZM143.751 22.9403H165.571V18.8121H147.879V14.0943H165.571V9.96613H147.879V5.24826H165.571V1.12012H140.802V19.9916H143.751V22.9403ZM164.981 22.3491H144.342V19.4005H141.393V1.70985H141.392V19.4019H144.341V22.3506H164.981V22.3491ZM164.981 13.5045H147.29V13.5031H164.981V13.5045ZM164.981 4.65852H147.29V4.65711H164.981V4.65852ZM173.237 22.9403H180.314V1.12012H173.237V22.9403ZM149.648 27.6582H143.751V37.6836H149.648V40.6323H174.417V37.6836H180.314V27.6582H174.417V24.7095H149.648V27.6582ZM150.238 40.0426V37.0939H144.341V28.2479H144.342V37.0925H150.239V40.0412H173.827V40.0426H150.238ZM173.828 37.0939H179.724V37.0925H173.828V37.0939ZM150.239 25.2992H150.238V28.2465H150.239V25.2992ZM150.828 31.7863H153.776V28.8376H170.289V31.7863H173.237V33.5555H170.289V36.5042H153.776V33.5555H150.828V31.7863ZM170.878 31.1966V28.2479H153.188V28.2465H170.879V31.1952H173.828V34.1438H173.827V31.1966H170.878ZM170.879 34.1452H170.878V37.0925H170.879V34.1452ZM150.239 31.1966V31.1952H153.187V31.1966H150.239ZM179.724 22.3491V22.3506H173.827V1.70985H173.828V22.3491H179.724ZM126.648 40.0412H120.755V40.0426H126.652V22.3506H129.597V22.3491H126.648V40.0412ZM126.648 19.4005V1.70985H126.652V19.4005H126.648ZM135.498 1.70985H135.494V40.0412H129.601V40.0426H135.498V1.70985ZM106.008 37.0925H97.1655V37.0939H106.011V34.1452H108.96V31.1966H111.909V4.65852H111.905V31.1952H108.956V34.1438H106.008V37.0925ZM94.2169 7.60719V7.60578H106.008V7.60719H94.2169ZM127.242 40.6323H120.165V1.12012H127.242V18.8121H129.011V1.12012H136.088V40.6323H129.011V22.9403H127.242V40.6323ZM102.473 30.6068H105.422V8.19693H93.6271V4.06879H112.498V31.7863H109.55V34.735H106.601V37.6836H96.5758V33.5555H102.473V30.6068Z" fill="white"/>
</svg>
