<svg width="76" height="74" viewBox="0 0 76 74" fill="none" xmlns="http://www.w3.org/2000/svg">
<rect width="70" height="70" rx="35" fill="#F0F0F0"/>
<path fill-rule="evenodd" clip-rule="evenodd" d="M33.7184 17.2969H43.8099V19.6556H46.3256C46.2778 19.7807 46.217 19.9021 46.1448 20.0202L38.0035 31.5497H45.648V33.5515H47.6391C47.5887 33.8349 47.4672 34.1196 47.259 34.3982L27.0069 52.706V50.7475H25.6257L28.6977 37.4182H24.2497V35.3989H22.3613C22.3779 35.3076 22.3995 35.2123 22.4252 35.1112L31.2052 19.6555H33.7184V17.2969Z" fill="white"/>
<circle cx="62.2224" cy="60.2771" r="12.8455" fill="#FCFCFC" stroke="#F0F0F0" stroke-width="1.53125"/>
<path d="M62.241 54.5144C62.3991 54.1734 62.8032 54.0263 63.1435 54.1859L66.0727 55.5591C66.413 55.7186 66.5607 56.1244 66.4025 56.4653L62.3475 65.2079C62.2705 65.374 62.13 65.5017 61.9577 65.5623L59.827 66.312C59.4785 66.4346 59.0955 66.255 58.965 65.9078L58.1665 63.785C58.102 63.6133 58.109 63.423 58.186 63.257L62.241 54.5144Z" fill="#D9D9D9"/>
<path d="M59.3906 54.8047L67.5024 58.6105" stroke="#FCFCFC" stroke-width="0.850694"/>
</svg>
